<?xml version="1.0" encoding="utf-8"?>
<!-- Generator: Adobe Illustrator 17.1.0, SVG Export Plug-In . SVG Version: 6.00 Build 0)  -->
<!DOCTYPE svg PUBLIC "-//W3C//DTD SVG 1.1//EN" "http://www.w3.org/Graphics/SVG/1.1/DTD/svg11.dtd">
<svg version="1.1" id="Слой_1" xmlns="http://www.w3.org/2000/svg" xmlns:xlink="http://www.w3.org/1999/xlink" x="0px" y="0px"
	 viewBox="0 0 320 160" enable-background="new 0 0 320 160" xml:space="preserve">
<g>
	<g>
		<path fill="#F3CD32" d="M286,114.7h-18.4c-1.7,0-3-1.3-3-3s1.3-3,3-3H286c0.9,0,1.6-0.7,1.6-1.6V95.1c0-9.3-6.3-17.2-15.4-19.3
			l-51.4-11.7c-1-0.2-2-0.7-2.8-1.3L181.8,36c-0.3-0.2-0.6-0.3-1-0.3h-70.6c-0.3,0-0.5,0.1-0.8,0.2L58.3,63.1
			c-3.2,1.7-6.7,2.6-10.3,2.6H33.3c-0.9,0-1.6,0.7-1.6,1.6V107c0,0.9,0.7,1.6,1.6,1.6h22.4c1.7,0,3,1.3,3,3s-1.3,3-3,3H33.3
			c-4.2,0-7.6-3.4-7.6-7.6V67.3c0-4.2,3.4-7.6,7.6-7.6h14.6c2.6,0,5.2-0.6,7.5-1.9l51.2-27.2c1.1-0.6,2.3-0.9,3.6-0.9h70.6
			c1.6,0,3.2,0.5,4.5,1.5L221.7,58c0.2,0.1,0.4,0.2,0.6,0.3L273.6,70c11.8,2.7,20,13,20,25.1V107C293.7,111.2,290.2,114.7,286,114.7
			z"/>
	</g>
	<g>
		<g>
			<path fill="#F3CD32" d="M69.3,65.6c3.2,0,3.2-5,0-5C66.1,60.6,66.1,65.6,69.3,65.6L69.3,65.6z"/>
		</g>
		<g>
			<path fill="#F3CD32" d="M77.3,65.6c3.2,0,3.2-5,0-5C74,60.6,74,65.6,77.3,65.6L77.3,65.6z"/>
		</g>
		<g>
			<path fill="#F3CD32" d="M85.8,65.6c3.2,0,3.2-5,0-5C82.5,60.6,82.5,65.6,85.8,65.6L85.8,65.6z"/>
		</g>
		<g>
			<path fill="#F3CD32" d="M94.6,65.6c3.2,0,3.2-5,0-5C91.4,60.6,91.4,65.6,94.6,65.6L94.6,65.6z"/>
		</g>
		<g>
			<path fill="#F3CD32" d="M103.3,65.6c3.2,0,3.2-5,0-5C100.1,60.6,100.1,65.6,103.3,65.6L103.3,65.6z"/>
		</g>
		<g>
			<path fill="#F3CD32" d="M111.9,65.6c3.2,0,3.2-5,0-5C108.7,60.6,108.7,65.6,111.9,65.6L111.9,65.6z"/>
		</g>
		<g>
			<path fill="#F3CD32" d="M120,65.6c3.2,0,3.2-5,0-5C116.8,60.6,116.8,65.6,120,65.6L120,65.6z"/>
		</g>
		<g>
			<path fill="#F3CD32" d="M129.1,65.6c3.2,0,3.2-5,0-5C125.8,60.6,125.8,65.6,129.1,65.6L129.1,65.6z"/>
		</g>
		<g>
			<path fill="#F3CD32" d="M137.4,65.6c3.2,0,3.2-5,0-5C134.2,60.6,134.2,65.6,137.4,65.6L137.4,65.6z"/>
		</g>
		<g>
			<path fill="#F3CD32" d="M145,65.6c3.2,0,3.2-5,0-5C141.8,60.6,141.8,65.6,145,65.6L145,65.6z"/>
		</g>
		<g>
			<path fill="#F3CD32" d="M153.6,65.6c3.2,0,3.2-5,0-5C150.4,60.6,150.4,65.6,153.6,65.6L153.6,65.6z"/>
		</g>
	</g>
	<g>
		<g>
			<path fill="#F3CD32" d="M161.6,65.6c3.2,0,3.2-5,0-5C158.3,60.6,158.3,65.6,161.6,65.6L161.6,65.6z"/>
		</g>
		<g>
			<path fill="#F3CD32" d="M169.5,65.6c3.2,0,3.2-5,0-5C166.3,60.6,166.3,65.6,169.5,65.6L169.5,65.6z"/>
		</g>
		<g>
			<path fill="#F3CD32" d="M178,65.6c3.2,0,3.2-5,0-5C174.8,60.6,174.8,65.6,178,65.6L178,65.6z"/>
		</g>
		<g>
			<path fill="#F3CD32" d="M186.8,65.6c3.2,0,3.2-5,0-5C183.6,60.6,183.6,65.6,186.8,65.6L186.8,65.6z"/>
		</g>
		<g>
			<path fill="#F3CD32" d="M195.6,65.6c3.2,0,3.2-5,0-5C192.3,60.6,192.3,65.6,195.6,65.6L195.6,65.6z"/>
		</g>
		<g>
			<path fill="#F3CD32" d="M204.1,65.6c3.2,0,3.2-5,0-5C200.9,60.6,200.9,65.6,204.1,65.6L204.1,65.6z"/>
		</g>
		<g>
			<path fill="#F3CD32" d="M212.2,65.6c3.2,0,3.2-5,0-5C209,60.6,209,65.6,212.2,65.6L212.2,65.6z"/>
		</g>
	</g>
	<g>
		<g>
			<path fill="#F3CD32" d="M153.6,57.6c3.2,0,3.2-5,0-5C150.4,52.6,150.4,57.6,153.6,57.6L153.6,57.6z"/>
		</g>
		<g>
			<path fill="#F3CD32" d="M153.6,49.7c3.2,0,3.2-5,0-5C150.4,44.7,150.4,49.7,153.6,49.7L153.6,49.7z"/>
		</g>
		<g>
			<path fill="#F3CD32" d="M153.6,41.2c3.2,0,3.2-5,0-5C150.4,36.2,150.4,41.2,153.6,41.2L153.6,41.2z"/>
		</g>
	</g>
	<g>
		<path fill="#F3CD32" d="M80.3,129.5c-11.8,0-21.5-9.6-21.5-21.5s9.6-21.5,21.5-21.5s21.5,9.6,21.5,21.5S92.2,129.5,80.3,129.5z
			 M80.3,92.6c-8.5,0-15.5,6.9-15.5,15.5s6.9,15.5,15.5,15.5c8.5,0,15.5-6.9,15.5-15.5S88.9,92.6,80.3,92.6z"/>
	</g>
	<g>
		<path fill="#F3CD32" d="M242.1,129.5c-11.8,0-21.5-9.6-21.5-21.5s9.6-21.5,21.5-21.5s21.5,9.6,21.5,21.5S253.9,129.5,242.1,129.5z
			 M242.1,92.6c-8.5,0-15.5,6.9-15.5,15.5s6.9,15.5,15.5,15.5c8.5,0,15.5-6.9,15.5-15.5S250.6,92.6,242.1,92.6z"/>
	</g>
	<g>
		<path fill="#F3CD32" d="M214.3,114.7H107.7c-1.7,0-3-1.3-3-3s1.3-3,3-3h106.7c1.7,0,3,1.3,3,3S216,114.7,214.3,114.7z"/>
	</g>
</g>
</svg>
