<?xml version="1.0" encoding="utf-8"?>
<!-- Generator: Adobe Illustrator 17.1.0, SVG Export Plug-In . SVG Version: 6.00 Build 0)  -->
<!DOCTYPE svg PUBLIC "-//W3C//DTD SVG 1.1//EN" "http://www.w3.org/Graphics/SVG/1.1/DTD/svg11.dtd">
<svg version="1.1" id="Слой_1" xmlns="http://www.w3.org/2000/svg" xmlns:xlink="http://www.w3.org/1999/xlink" x="0px" y="0px"
	 viewBox="0 0 320 160" enable-background="new 0 0 320 160" xml:space="preserve">
<g>
	<g>
		<path fill="#F3CD32" d="M45.7,120.3H26.9c-4.9,0-8.9-4-8.9-8.9V82.6c0-4.9,4-8.9,8.9-8.9h10.4c2.9,0,5.8-0.8,8.2-2.4l35.4-22.8
			c1.4-0.9,3.1-1.4,4.8-1.4h82.5c1.9,0,3.8,0.6,5.3,1.8L203.4,71c2.3,1.7,5.2,2.7,8.2,2.7h37.7c17.5,0,34.8,5.7,48.8,16.2
			c2.3,1.7,3.6,4.4,3.6,7.2v12.8c0,4.9-4,8.9-8.9,8.9H284c-1.7,0-3-1.3-3-3s1.3-3,3-3h8.8c1.6,0,2.9-1.3,2.9-2.9V97
			c0-0.9-0.4-1.8-1.2-2.3c-13-9.7-29.1-15-45.2-15h-37.7c-4.2,0-8.4-1.4-11.7-3.9l-29.8-22.2c-0.5-0.4-1.1-0.6-1.7-0.6H85.7
			c-0.6,0-1.1,0.2-1.6,0.5L48.8,76.3c-3.4,2.2-7.4,3.4-11.5,3.4H26.9c-1.6,0-2.9,1.3-2.9,2.9v28.8c0,1.6,1.3,2.9,2.9,2.9h18.8
			c1.7,0,3,1.3,3,3S47.3,120.3,45.7,120.3z"/>
	</g>
	<g>
		<path fill="#F3CD32" d="M229,120.3H104c-1.7,0-3-1.3-3-3s1.3-3,3-3h125c1.7,0,3,1.3,3,3S230.7,120.3,229,120.3z"/>
	</g>
	<g>
		<path fill="#F3CD32" d="M258,139.1c-11.8,0-21.5-9.6-21.5-21.5c0-11.8,9.6-21.5,21.5-21.5s21.5,9.6,21.5,21.5
			C279.5,129.5,269.8,139.1,258,139.1z M258,102.2c-8.5,0-15.5,6.9-15.5,15.5c0,8.5,6.9,15.5,15.5,15.5s15.5-6.9,15.5-15.5
			C273.5,109.1,266.5,102.2,258,102.2z"/>
	</g>
	<g>
		<path fill="#F3CD32" d="M74.9,139.1c-11.8,0-21.5-9.6-21.5-21.5c0-11.8,9.6-21.5,21.5-21.5s21.5,9.6,21.5,21.5
			C96.4,129.5,86.8,139.1,74.9,139.1z M74.9,102.2c-8.5,0-15.5,6.9-15.5,15.5c0,8.5,6.9,15.5,15.5,15.5c8.5,0,15.5-6.9,15.5-15.5
			C90.4,109.1,83.4,102.2,74.9,102.2z"/>
	</g>
	<g>
		<g>
			<path fill="#F3CD32" d="M56.4,79.8c3.2,0,3.2-5,0-5C53.2,74.8,53.2,79.8,56.4,79.8L56.4,79.8z"/>
		</g>
		<g>
			<path fill="#F3CD32" d="M64.4,79.8c3.2,0,3.2-5,0-5C61.1,74.8,61.1,79.8,64.4,79.8L64.4,79.8z"/>
		</g>
		<g>
			<path fill="#F3CD32" d="M72.9,79.8c3.2,0,3.2-5,0-5C69.6,74.8,69.6,79.8,72.9,79.8L72.9,79.8z"/>
		</g>
		<g>
			<path fill="#F3CD32" d="M81.7,79.8c3.2,0,3.2-5,0-5C78.5,74.8,78.5,79.8,81.7,79.8L81.7,79.8z"/>
		</g>
		<g>
			<path fill="#F3CD32" d="M90.4,79.8c3.2,0,3.2-5,0-5C87.2,74.8,87.2,79.8,90.4,79.8L90.4,79.8z"/>
		</g>
		<g>
			<path fill="#F3CD32" d="M99,79.8c3.2,0,3.2-5,0-5C95.8,74.8,95.8,79.8,99,79.8L99,79.8z"/>
		</g>
		<g>
			<path fill="#F3CD32" d="M107.1,79.8c3.2,0,3.2-5,0-5C103.9,74.8,103.9,79.8,107.1,79.8L107.1,79.8z"/>
		</g>
		<g>
			<path fill="#F3CD32" d="M116.2,79.8c3.2,0,3.2-5,0-5C113,74.8,113,79.8,116.2,79.8L116.2,79.8z"/>
		</g>
		<g>
			<path fill="#F3CD32" d="M124.5,79.8c3.2,0,3.2-5,0-5C121.3,74.8,121.3,79.8,124.5,79.8L124.5,79.8z"/>
		</g>
		<g>
			<path fill="#F3CD32" d="M132.1,79.8c3.2,0,3.2-5,0-5C128.9,74.8,128.9,79.8,132.1,79.8L132.1,79.8z"/>
		</g>
		<g>
			<path fill="#F3CD32" d="M140.8,79.8c3.2,0,3.2-5,0-5C137.5,74.8,137.5,79.8,140.8,79.8L140.8,79.8z"/>
		</g>
	</g>
	<g>
		<g>
			<path fill="#F3CD32" d="M148.7,79.8c3.2,0,3.2-5,0-5C145.5,74.8,145.5,79.8,148.7,79.8L148.7,79.8z"/>
		</g>
		<g>
			<path fill="#F3CD32" d="M156.6,79.8c3.2,0,3.2-5,0-5C153.4,74.8,153.4,79.8,156.6,79.8L156.6,79.8z"/>
		</g>
		<g>
			<path fill="#F3CD32" d="M165.1,79.8c3.2,0,3.2-5,0-5C161.9,74.8,161.9,79.8,165.1,79.8L165.1,79.8z"/>
		</g>
		<g>
			<path fill="#F3CD32" d="M173.9,79.8c3.2,0,3.2-5,0-5C170.7,74.8,170.7,79.8,173.9,79.8L173.9,79.8z"/>
		</g>
		<g>
			<path fill="#F3CD32" d="M182.7,79.8c3.2,0,3.2-5,0-5C179.5,74.8,179.5,79.8,182.7,79.8L182.7,79.8z"/>
		</g>
		<g>
			<path fill="#F3CD32" d="M191.3,79.8c3.2,0,3.2-5,0-5C188,74.8,188,79.8,191.3,79.8L191.3,79.8z"/>
		</g>
	</g>
	<g>
		<g>
			<path fill="#F3CD32" d="M140.8,56.8c3.2,0,3.2-5,0-5C137.5,51.8,137.5,56.8,140.8,56.8L140.8,56.8z"/>
		</g>
		<g>
			<path fill="#F3CD32" d="M140.8,64.8c3.2,0,3.2-5,0-5C137.5,59.8,137.5,64.8,140.8,64.8L140.8,64.8z"/>
		</g>
		<g>
			<path fill="#F3CD32" d="M140.8,72.3c3.2,0,3.2-5,0-5C137.5,67.3,137.5,72.3,140.8,72.3L140.8,72.3z"/>
		</g>
	</g>
</g>
</svg>
