<?xml version="1.0" encoding="utf-8"?>
<!-- Generator: Adobe Illustrator 17.1.0, SVG Export Plug-In . SVG Version: 6.00 Build 0)  -->
<!DOCTYPE svg PUBLIC "-//W3C//DTD SVG 1.1//EN" "http://www.w3.org/Graphics/SVG/1.1/DTD/svg11.dtd">
<svg version="1.1" id="Слой_1" xmlns="http://www.w3.org/2000/svg" xmlns:xlink="http://www.w3.org/1999/xlink" x="0px" y="0px"
	 viewBox="0 0 320 160" enable-background="new 0 0 320 160" xml:space="preserve">
<g>
	<g>
		<path fill="#F3CD32" d="M210.7,117.3h-97.5c-1.7,0-3-1.3-3-3s1.3-3,3-3h97.5c1.7,0,3,1.3,3,3S212.3,117.3,210.7,117.3z"/>
	</g>
	<g>
		<path fill="#F3CD32" d="M292,117.3h-13.5c-1.7,0-3-1.3-3-3s1.3-3,3-3H292c2.8,0,5-2.2,5-5V89.5c0-8-2.8-15.8-7.9-22
			c-5.4-6.5-13.3-10.2-21.7-10.3l-34.5-0.1c-6.2,0-12.2-1.7-17.5-4.9l-39.5-23.8c-5.2-3.1-11.2-4.8-17.3-4.8H75.9
			c-6,0-11.8,1.9-16.7,5.4L24.4,54.4c-1.3,0.9-2.1,2.5-2.1,4v47.9c0,2.8,2.2,5,5,5H47c1.7,0,3,1.3,3,3s-1.3,3-3,3H27.3
			c-6.1,0-11-4.9-11-11V58.4c0-3.5,1.7-6.8,4.5-8.9l34.8-25.3c5.9-4.3,12.9-6.6,20.3-6.6h82.6c7.2,0,14.3,2,20.4,5.7l39.5,23.8
			c4.4,2.6,9.3,4,14.4,4l34.5,0.1c10.2,0,19.8,4.6,26.3,12.4c6,7.2,9.3,16.4,9.3,25.8v16.8C303,112.4,298.1,117.3,292,117.3z"/>
	</g>
	<g>
		<path fill="#F3CD32" d="M78.8,142.1c-15.3,0-27.8-12.4-27.8-27.8s12.4-27.8,27.8-27.8s27.8,12.4,27.8,27.8S94.1,142.1,78.8,142.1z
			 M78.8,92.6c-12,0-21.8,9.8-21.8,21.8s9.8,21.8,21.8,21.8s21.8-9.8,21.8-21.8S90.8,92.6,78.8,92.6z"/>
	</g>
	<g>
		<path fill="#F3CD32" d="M245.5,142.1c-15.3,0-27.8-12.4-27.8-27.8s12.4-27.8,27.8-27.8s27.8,12.4,27.8,27.8
			S260.8,142.1,245.5,142.1z M245.5,92.6c-12,0-21.8,9.8-21.8,21.8s9.8,21.8,21.8,21.8s21.8-9.8,21.8-21.8S257.5,92.6,245.5,92.6z"
			/>
	</g>
	<g>
		<g>
			<path fill="#F3CD32" d="M62.5,56.7c3.2,0,3.2-5,0-5C59.3,51.7,59.3,56.7,62.5,56.7L62.5,56.7z"/>
		</g>
		<g>
			<path fill="#F3CD32" d="M70.4,56.7c3.2,0,3.2-5,0-5C67.2,51.7,67.2,56.7,70.4,56.7L70.4,56.7z"/>
		</g>
		<g>
			<path fill="#F3CD32" d="M78.9,56.7c3.2,0,3.2-5,0-5C75.7,51.7,75.7,56.7,78.9,56.7L78.9,56.7z"/>
		</g>
		<g>
			<path fill="#F3CD32" d="M87.8,56.7c3.2,0,3.2-5,0-5C84.5,51.7,84.5,56.7,87.8,56.7L87.8,56.7z"/>
		</g>
		<g>
			<path fill="#F3CD32" d="M96.5,56.7c3.2,0,3.2-5,0-5C93.3,51.7,93.3,56.7,96.5,56.7L96.5,56.7z"/>
		</g>
		<g>
			<path fill="#F3CD32" d="M105.1,56.7c3.2,0,3.2-5,0-5C101.9,51.7,101.9,56.7,105.1,56.7L105.1,56.7z"/>
		</g>
		<g>
			<path fill="#F3CD32" d="M113.2,56.7c3.2,0,3.2-5,0-5C109.9,51.7,109.9,56.7,113.2,56.7L113.2,56.7z"/>
		</g>
		<g>
			<path fill="#F3CD32" d="M122.2,56.7c3.2,0,3.2-5,0-5C119,51.7,119,56.7,122.2,56.7L122.2,56.7z"/>
		</g>
		<g>
			<path fill="#F3CD32" d="M130.6,56.7c3.2,0,3.2-5,0-5C127.3,51.7,127.3,56.7,130.6,56.7L130.6,56.7z"/>
		</g>
		<g>
			<path fill="#F3CD32" d="M138.1,56.7c3.2,0,3.2-5,0-5C134.9,51.7,134.9,56.7,138.1,56.7L138.1,56.7z"/>
		</g>
		<g>
			<path fill="#F3CD32" d="M146.8,56.7c3.2,0,3.2-5,0-5C143.6,51.7,143.6,56.7,146.8,56.7L146.8,56.7z"/>
		</g>
	</g>
	<g>
		<g>
			<path fill="#F3CD32" d="M154.7,56.7c3.2,0,3.2-5,0-5C151.5,51.7,151.5,56.7,154.7,56.7L154.7,56.7z"/>
		</g>
		<g>
			<path fill="#F3CD32" d="M162.6,56.7c3.2,0,3.2-5,0-5C159.4,51.7,159.4,56.7,162.6,56.7L162.6,56.7z"/>
		</g>
		<g>
			<path fill="#F3CD32" d="M171.1,56.7c3.2,0,3.2-5,0-5C167.9,51.7,167.9,56.7,171.1,56.7L171.1,56.7z"/>
		</g>
		<g>
			<path fill="#F3CD32" d="M180,56.7c3.2,0,3.2-5,0-5C176.8,51.7,176.8,56.7,180,56.7L180,56.7z"/>
		</g>
		<g>
			<path fill="#F3CD32" d="M188.7,56.7c3.2,0,3.2-5,0-5C185.5,51.7,185.5,56.7,188.7,56.7L188.7,56.7z"/>
		</g>
		<g>
			<path fill="#F3CD32" d="M197.3,56.7c3.2,0,3.2-5,0-5C194.1,51.7,194.1,56.7,197.3,56.7L197.3,56.7z"/>
		</g>
		<g>
			<path fill="#F3CD32" d="M205.4,56.7c3.2,0,3.2-5,0-5C202.2,51.7,202.2,56.7,205.4,56.7L205.4,56.7z"/>
		</g>
	</g>
	<g>
		<g>
			<path fill="#F3CD32" d="M36.8,56.7c3.2,0,3.2-5,0-5C33.5,51.7,33.5,56.7,36.8,56.7L36.8,56.7z"/>
		</g>
		<g>
			<path fill="#F3CD32" d="M45.3,56.7c3.2,0,3.2-5,0-5C42.1,51.7,42.1,56.7,45.3,56.7L45.3,56.7z"/>
		</g>
		<g>
			<path fill="#F3CD32" d="M53.4,56.7c3.2,0,3.2-5,0-5C50.2,51.7,50.2,56.7,53.4,56.7L53.4,56.7z"/>
		</g>
	</g>
	<g>
		<g>
			<path fill="#F3CD32" d="M138.1,30.8c3.2,0,3.2-5,0-5C134.9,25.8,134.9,30.8,138.1,30.8L138.1,30.8z"/>
		</g>
		<g>
			<path fill="#F3CD32" d="M138.1,39.4c3.2,0,3.2-5,0-5C134.9,34.4,134.9,39.4,138.1,39.4L138.1,39.4z"/>
		</g>
		<g>
			<path fill="#F3CD32" d="M138.1,47.5c3.2,0,3.2-5,0-5C134.9,42.5,134.9,47.5,138.1,47.5L138.1,47.5z"/>
		</g>
	</g>
</g>
</svg>
