<?xml version="1.0" encoding="utf-8"?>
<!-- Generator: Adobe Illustrator 17.1.0, SVG Export Plug-In . SVG Version: 6.00 Build 0)  -->
<!DOCTYPE svg PUBLIC "-//W3C//DTD SVG 1.1//EN" "http://www.w3.org/Graphics/SVG/1.1/DTD/svg11.dtd">
<svg version="1.1" id="Слой_1" xmlns="http://www.w3.org/2000/svg" xmlns:xlink="http://www.w3.org/1999/xlink" x="0px" y="0px"
	 viewBox="0 0 360 160" enable-background="new 0 0 360 160" xml:space="preserve">
<g>
	<g>
		<path fill="#F3CD32" d="M254.5,115.7H126.2c-1.7,0-3-1.3-3-3s1.3-3,3-3h128.3c1.7,0,3,1.3,3,3S256.2,115.7,254.5,115.7z"/>
	</g>
	<g>
		<path fill="#F3CD32" d="M326.2,115.7H325c-1.7,0-3-1.3-3-3s1.3-3,3-3h1.2c5.1,0,9.2-4.1,9.2-9.2v-28c0-5.1-4.1-9.2-9.2-9.2h-60.4
			c-6.7,0-12.9-3-17.1-8.3l-22-27.8c-2-2.5-4.9-3.9-8.1-3.9H64.8c-4.1,0-7.8,2.4-9.5,6.2L42.5,59c-0.6,1.3-0.9,2.7-0.9,4.1v36.2
			c0,5.7,4.6,10.3,10.3,10.3h4.7c1.7,0,3,1.3,3,3s-1.3,3-3,3H52c-9,0-16.3-7.3-16.3-16.3V63.1c0-2.2,0.5-4.4,1.3-6.5l12.8-29.4
			c2.6-6,8.5-9.8,15-9.8h153.8c5,0,9.7,2.3,12.8,6.2l22,27.8c3,3.8,7.5,6,12.4,6h60.4c8.4,0,15.2,6.8,15.2,15.2v28
			C341.3,108.9,334.5,115.7,326.2,115.7z"/>
	</g>
	<g>
		<path fill="#F3CD32" d="M37,103.7h-8.5c-6,0-10.8-4.9-10.8-10.8V53.2c0-6,4.9-10.8,10.8-10.8H45c1.7,0,3,1.3,3,3s-1.3,3-3,3H28.5
			c-2.7,0-4.8,2.2-4.8,4.8v39.7c0,2.7,2.2,4.8,4.8,4.8H37c1.7,0,3,1.3,3,3S38.7,103.7,37,103.7z"/>
	</g>
	<g>
		<path fill="#F3CD32" d="M91.1,140.9c-15.3,0-27.8-12.4-27.8-27.8s12.4-27.8,27.8-27.8s27.8,12.4,27.8,27.8S106.4,140.9,91.1,140.9
			z M91.1,91.4c-12,0-21.8,9.8-21.8,21.8s9.8,21.8,21.8,21.8s21.8-9.8,21.8-21.8S103.1,91.4,91.1,91.4z"/>
	</g>
	<g>
		<path fill="#F3CD32" d="M290.5,140.9c-15.3,0-27.8-12.4-27.8-27.8s12.4-27.8,27.8-27.8s27.8,12.4,27.8,27.8
			S305.8,140.9,290.5,140.9z M290.5,91.4c-12,0-21.8,9.8-21.8,21.8s9.8,21.8,21.8,21.8s21.8-9.8,21.8-21.8S302.5,91.4,290.5,91.4z"
			/>
	</g>
	<g>
		<g>
			<path fill="#F3CD32" d="M99.8,62c3.2,0,3.2-5,0-5C96.6,57,96.5,62,99.8,62L99.8,62z"/>
		</g>
		<g>
			<path fill="#F3CD32" d="M107.7,62c3.2,0,3.2-5,0-5C104.5,57,104.5,62,107.7,62L107.7,62z"/>
		</g>
		<g>
			<path fill="#F3CD32" d="M116.2,62c3.2,0,3.2-5,0-5C113,57,113,62,116.2,62L116.2,62z"/>
		</g>
		<g>
			<path fill="#F3CD32" d="M125,62c3.2,0,3.2-5,0-5C121.8,57,121.8,62,125,62L125,62z"/>
		</g>
		<g>
			<path fill="#F3CD32" d="M133.8,62c3.2,0,3.2-5,0-5C130.6,57,130.5,62,133.8,62L133.8,62z"/>
		</g>
		<g>
			<path fill="#F3CD32" d="M142.4,62c3.2,0,3.2-5,0-5C139.1,57,139.1,62,142.4,62L142.4,62z"/>
		</g>
		<g>
			<path fill="#F3CD32" d="M150.4,62c3.2,0,3.2-5,0-5C147.2,57,147.2,62,150.4,62L150.4,62z"/>
		</g>
		<g>
			<path fill="#F3CD32" d="M159.5,62c3.2,0,3.2-5,0-5C156.3,57,156.3,62,159.5,62L159.5,62z"/>
		</g>
		<g>
			<path fill="#F3CD32" d="M167.8,62c3.2,0,3.2-5,0-5C164.6,57,164.6,62,167.8,62L167.8,62z"/>
		</g>
		<g>
			<path fill="#F3CD32" d="M175.4,62c3.2,0,3.2-5,0-5C172.2,57,172.2,62,175.4,62L175.4,62z"/>
		</g>
		<g>
			<path fill="#F3CD32" d="M184.1,62c3.2,0,3.2-5,0-5C180.9,57,180.9,62,184.1,62L184.1,62z"/>
		</g>
	</g>
	<g>
		<g>
			<path fill="#F3CD32" d="M192,62c3.2,0,3.2-5,0-5C188.8,57,188.8,62,192,62L192,62z"/>
		</g>
		<g>
			<path fill="#F3CD32" d="M199.9,62c3.2,0,3.2-5,0-5C196.7,57,196.7,62,199.9,62L199.9,62z"/>
		</g>
		<g>
			<path fill="#F3CD32" d="M208.4,62c3.2,0,3.2-5,0-5C205.2,57,205.2,62,208.4,62L208.4,62z"/>
		</g>
		<g>
			<path fill="#F3CD32" d="M217.3,62c3.2,0,3.2-5,0-5C214,57,214,62,217.3,62L217.3,62z"/>
		</g>
		<g>
			<path fill="#F3CD32" d="M226,62c3.2,0,3.2-5,0-5C222.8,57,222.8,62,226,62L226,62z"/>
		</g>
		<g>
			<path fill="#F3CD32" d="M234.6,62c3.2,0,3.2-5,0-5C231.4,57,231.4,62,234.6,62L234.6,62z"/>
		</g>
		<g>
			<path fill="#F3CD32" d="M242.7,62c3.2,0,3.2-5,0-5C239.4,57,239.4,62,242.7,62L242.7,62z"/>
		</g>
	</g>
	<g>
		<g>
			<path fill="#F3CD32" d="M74.3,62c3.2,0,3.2-5,0-5C71,57,71,62,74.3,62L74.3,62z"/>
		</g>
		<g>
			<path fill="#F3CD32" d="M82.8,62c3.2,0,3.2-5,0-5C79.6,57,79.6,62,82.8,62L82.8,62z"/>
		</g>
		<g>
			<path fill="#F3CD32" d="M90.9,62c3.2,0,3.2-5,0-5C87.7,57,87.7,62,90.9,62L90.9,62z"/>
		</g>
	</g>
	<g>
		<g>
			<path fill="#F3CD32" d="M48.5,62c3.2,0,3.2-5,0-5C45.3,57,45.3,62,48.5,62L48.5,62z"/>
		</g>
		<g>
			<path fill="#F3CD32" d="M57.1,62c3.2,0,3.2-5,0-5C53.9,57,53.9,62,57.1,62L57.1,62z"/>
		</g>
		<g>
			<path fill="#F3CD32" d="M65.2,62c3.2,0,3.2-5,0-5C61.9,57,61.9,62,65.2,62L65.2,62z"/>
		</g>
	</g>
	<g>
		<g>
			<path fill="#F3CD32" d="M183.9,36.7c3.2,0,3.2-5,0-5C180.7,31.7,180.7,36.7,183.9,36.7L183.9,36.7z"/>
		</g>
		<g>
			<path fill="#F3CD32" d="M183.9,28.6c3.2,0,3.2-5,0-5C180.7,23.6,180.7,28.6,183.9,28.6L183.9,28.6z"/>
		</g>
		<g>
			<path fill="#F3CD32" d="M183.9,45.2c3.2,0,3.2-5,0-5C180.7,40.2,180.7,45.2,183.9,45.2L183.9,45.2z"/>
		</g>
		<g>
			<path fill="#F3CD32" d="M183.9,53.3c3.2,0,3.2-5,0-5C180.7,48.3,180.7,53.3,183.9,53.3L183.9,53.3z"/>
		</g>
	</g>
	<g>
		<g>
			<path fill="#F3CD32" d="M125,36.7c3.2,0,3.2-5,0-5C121.8,31.7,121.8,36.7,125,36.7L125,36.7z"/>
		</g>
		<g>
			<path fill="#F3CD32" d="M125,28.6c3.2,0,3.2-5,0-5C121.8,23.6,121.8,28.6,125,28.6L125,28.6z"/>
		</g>
		<g>
			<path fill="#F3CD32" d="M125,45.2c3.2,0,3.2-5,0-5C121.8,40.2,121.8,45.2,125,45.2L125,45.2z"/>
		</g>
		<g>
			<path fill="#F3CD32" d="M125,53.3c3.2,0,3.2-5,0-5C121.8,48.3,121.8,53.3,125,53.3L125,53.3z"/>
		</g>
	</g>
</g>
</svg>
