<svg xmlns="http://www.w3.org/2000/svg" xmlns:xlink="http://www.w3.org/1999/xlink" id="Layer_1" x="0px" y="0px" viewBox="15.1 22.9 100 100" xml:space="preserve"> <path fill="#FFFFFF" fill-opacity="0" stroke="#F3CD32" stroke-miterlimit="10" d="M107.9,53.2H101c-0.2,0-0.3-0.1-0.3-0.2 c-3.1-9.1-6.1-17.8-6.1-17.8c-1-2.8-3.7-4.6-6.7-4.6H43.4c-3,0-5.6,1.8-6.7,4.6c0,0-3,8.7-6.1,17.8c0,0.1-0.2,0.2-0.3,0.2h-6.9 c-2.9,0-5.2,2.3-5.2,5.2c0,0,0,0,0,0v2.9c0,0.6,0.5,1,1,1c0,0,0,0,0,0h7.4c0.3,0,0.6,0.3,0.6,0.6c0,0.1,0,0.1,0,0.2 c-2,5.8-3.4,10.2-3.4,10.3v22.3l0,0v7.1c0,0.8,0.7,1.5,1.5,1.5h9.3c1.1,0,2-0.9,2-2l0,0v-7.6c0-0.9,0.7-1.6,1.6-1.6h0h55.1 c1,0,1.8,0.8,1.8,1.8v7.5c0,1.1,0.9,2,2,2c0,0,0,0,0,0h9.1c0.8,0,1.5-0.7,1.5-1.5v-7.1l0,0V73.6c0-0.1-1.5-4.6-3.4-10.3 c-0.1-0.3,0.1-0.7,0.4-0.8c0.1,0,0.1,0,0.2,0h7.4c0.6,0,1-0.5,1-1v0v-2.9C113.2,55.6,110.8,53.2,107.9,53.2 C107.9,53.2,107.9,53.2,107.9,53.2z"></path> <title>иконки cайт кэп</title> <circle fill="#F3CD32" cx="97.7" cy="88.1" r="0.7"></circle> <circle fill="#F3CD32" cx="94.7" cy="88.1" r="0.7"></circle> <circle fill="#F3CD32" cx="91.8" cy="88.1" r="0.7"></circle> <circle fill="#F3CD32" cx="88.9" cy="88.1" r="0.7"></circle> <circle fill="#F3CD32" cx="86" cy="88.1" r="0.7"></circle> <circle fill="#F3CD32" cx="83.1" cy="88.1" r="0.7"></circle> <circle fill="#F3CD32" cx="80.2" cy="88.1" r="0.7"></circle> <circle fill="#F3CD32" cx="77.3" cy="88.1" r="0.7"></circle> <circle fill="#F3CD32" cx="74.4" cy="88.1" r="0.7"></circle> <circle fill="#F3CD32" cx="71.5" cy="88.1" r="0.7"></circle> <circle fill="#F3CD32" cx="68.5" cy="88.1" r="0.7"></circle> <circle fill="#F3CD32" cx="65.6" cy="88.1" r="0.7"></circle> <circle fill="#F3CD32" cx="62.7" cy="88.1" r="0.7"></circle> <circle fill="#F3CD32" cx="59.8" cy="88.1" r="0.7"></circle> <circle fill="#F3CD32" cx="56.9" cy="88.1" r="0.7"></circle> <circle fill="#F3CD32" cx="54" cy="88.1" r="0.7"></circle> <circle fill="#F3CD32" cx="51.1" cy="88.1" r="0.7"></circle> <circle fill="#F3CD32" cx="48.2" cy="88.1" r="0.7"></circle> <circle fill="#F3CD32" cx="45.3" cy="88.1" r="0.7"></circle> <circle fill="#F3CD32" cx="42.3" cy="88.1" r="0.7"></circle> <circle fill="#F3CD32" cx="39.4" cy="88.1" r="0.7"></circle> <circle fill="#F3CD32" cx="36.5" cy="88.1" r="0.7"></circle> <circle fill="#F3CD32" cx="33.6" cy="88.1" r="0.7"></circle> <circle fill="#F3CD32" cx="97.7" cy="61.3" r="0.7"></circle> <circle fill="#F3CD32" cx="94.7" cy="61.3" r="0.7"></circle> <circle fill="#F3CD32" cx="91.8" cy="61.3" r="0.7"></circle> <circle fill="#F3CD32" cx="88.9" cy="61.3" r="0.7"></circle> <circle fill="#F3CD32" cx="86" cy="61.3" r="0.7"></circle> <circle fill="#F3CD32" cx="83.1" cy="61.3" r="0.7"></circle> <circle fill="#F3CD32" cx="80.2" cy="61.3" r="0.7"></circle> <circle fill="#F3CD32" cx="77.3" cy="61.3" r="0.7"></circle> <circle fill="#F3CD32" cx="74.4" cy="61.3" r="0.7"></circle> <circle fill="#F3CD32" cx="71.5" cy="61.3" r="0.7"></circle> <circle fill="#F3CD32" cx="68.5" cy="61.3" r="0.7"></circle> <circle fill="#F3CD32" cx="65.6" cy="61.3" r="0.7"></circle> <circle fill="#F3CD32" cx="62.7" cy="61.3" r="0.7"></circle> <circle fill="#F3CD32" cx="59.8" cy="61.3" r="0.7"></circle> <circle fill="#F3CD32" cx="56.9" cy="61.3" r="0.7"></circle> <circle fill="#F3CD32" cx="54" cy="61.3" r="0.7"></circle> <circle fill="#F3CD32" cx="51.1" cy="61.3" r="0.7"></circle> <circle fill="#F3CD32" cx="48.2" cy="61.3" r="0.7"></circle> <circle fill="#F3CD32" cx="45.3" cy="61.3" r="0.7"></circle> <circle fill="#F3CD32" cx="42.3" cy="61.3" r="0.7"></circle> <circle fill="#F3CD32" cx="39.4" cy="61.3" r="0.7"></circle> <circle fill="#F3CD32" cx="36.5" cy="61.3" r="0.7"></circle> <circle fill="#F3CD32" cx="33.6" cy="61.3" r="0.7"></circle> <line fill="#F3CD32" x1="73.4" y1="78.8" x2="57.9" y2="78.8"></line> <line fill="#F3CD32" x1="86.5" y1="73.3" x2="44.8" y2="73.3"></line> <circle fill="#F3CD32" cx="36.3" cy="76" r="5.1"></circle> <circle fill="#F3CD32" cx="94.9" cy="76" r="5.1"></circle> </svg>