<?xml version="1.0" encoding="UTF-8"?> <!-- Generator: Adobe Illustrator 22.0.1, SVG Export Plug-In . SVG Version: 6.00 Build 0) --> <svg xmlns="http://www.w3.org/2000/svg" xmlns:xlink="http://www.w3.org/1999/xlink" version="1.1" id="Layer_1" x="0px" y="0px" viewBox="0 0 326.7 84.1" style="enable-background:new 0 0 326.7 84.1;" xml:space="preserve"> <style type="text/css"> .st0{fill:#FFFFFF;} .st1{fill:#FFF200;} .st2{fill:#231F20;} </style> <path class="st0" d="M317.7,41.8c4.4,0,8,3.7,7.9,8.1s-3.7,8-8.1,7.9c-4.4,0-7.9-3.6-7.9-8C309.6,45.4,313.2,41.8,317.7,41.8 C317.6,41.8,317.7,41.8,317.7,41.8z"></path> <rect x="1.9" y="0.8" class="st1" width="56.3" height="56.3"></rect> <polygon class="st2" points="55.8,2.4 3.5,2.4 3.5,54.8 "></polygon> <path class="st0" d="M75.7,57.1h18.9c0.6-0.1,1-0.6,1-1.1v-7.8c0-0.6-0.2-1.2-0.7-1.5c-0.4-0.4-3-1.1-3-2.2V31.7l7.8,24.2 c0.2,0.6,0.3,0.9,1,1.2h4.6c0.6-0.1,1-0.6,1.1-1.2l6.4-24.1v12.7c-0.2,1-0.8,1.8-1.8,2.2c-0.6,0.2-1,0.8-1,1.4v7.8 c0,0.6,0.4,1,1,1.1h20.3c0.5,0,0.9-0.5,0.9-1v-7.8c0-0.8-0.6-1.4-1.3-1.4c-1.1-0.3-2-1.2-2.2-2.4V15.6c-0.2-2.1,0-3.3,0.8-3.7 c1.3-0.3,2.2-1.6,2.1-2.9V2.9c0.1-1.1-0.8-2-1.9-2.1c0,0,0,0,0,0h-21.3L102.9,21c0,0-0.1,0-0.2,0c0,0,0,0,0,0l0,0L97.3,0.8H74.2 C73,0.8,72.9,1.5,73,3v5.9c0.1,2.8,0.9,2.8,2.1,3.3c1.4,0.6,1.9,1.6,1.9,3.4v28.9c0,0.9-2,1.9-2.4,2.1c-0.5,0.4-0.8,1-0.7,1.6v7.5 C74,56.5,74.5,56.9,75.7,57.1z"></path> <path class="st0" d="M133.8,17v7.9c0,0.6,0.7,0.6,1.6,0.9c1.2,0.3,2.1,1.4,2,2.6v16.1c-0.1,1.1-0.9,2-2,2.3 c-0.5,0.2-0.7,0.6-0.9,1.3v8c0,0.8,0.1,1,0.9,1h21.4c0.8,0,0.9-0.4,0.9-1.1v-7.9c0-0.6,0.1-1.2-0.7-1.3c-1.2-0.4-2.5-1.3-2.5-2.3 l-0.1-11.2c0-1.5,1.6-3.3,3.3-3.8h4.6c0.5,0,0.9-0.4,0.9-0.9c0,0,0,0,0,0V16.7c-0.1-1.5-1.9-2.2-4.1-2.2c-2,0-3.8,0.9-5,2.4 c-0.2,0.1-0.5,0.1-0.8,0c-0.2-1-0.5-1.2-1.5-1.3h-16.9C134.1,15.6,133.8,16.2,133.8,17z"></path> <path class="st0" d="M168.2,41.8c4.4,0,8,3.6,8,8s-3.6,8-8,8s-8-3.6-8-8C160.2,45.4,163.7,41.8,168.2,41.8L168.2,41.8z"></path> <path class="st0" d="M225.6,6.4c-6-4.3-12.2-6.5-21.2-6.5c-12.9-0.3-21.3,5-21.9,14.5v29.3c0.8,7.3,8.6,14.2,21.8,14.2 c9.9,0,18.6-2,21.4-6.1l-0.1-15.8c-0.1-0.8-0.6-1-1.5-1l-15.7-0.1c-0.7,0-1.3,0.4-1.3,0.9v6.5c0,3.2-5.5,3.2-5.5,0V15.4 c0-3.2,5.5-3.1,5.5,0l0.1,7.5c0.1,0.6,0.7,1.1,1.3,1.1h15.3c1-0.1,1.7-0.2,1.8-1.1L225.6,6.4z"></path> <path class="st0" d="M263.7,0.8c0.8,0,1.5,0.7,1.6,1.5l8.5,42.1c0.3,1,1,1.8,2,2.2c0.6,0.3,1.3,0.5,1.5,1.4v7.1 c0.1,0.9-0.5,1.8-1.5,1.9c-0.1,0-0.2,0-0.3,0h-20.2c-0.9,0-1.7-0.7-1.7-1.7c0,0,0,0,0,0v-7.2c0.3-1.1,1-1.2,1.8-1.5 c1.3-0.8,1.9-2.4,1.3-3.9h-9.2c-0.6,2.4,0.4,3.3,1.7,3.9c0.8,0.1,1.6,0.7,1.8,1.5v7.1c0,1.1-0.5,1.8-1.6,1.8h-19.9 c-0.9,0.1-1.7-0.6-1.8-1.5c0-0.1,0-0.2,0-0.2v-7.1c0-0.7,0.5-1.3,1.2-1.5c0.9-0.4,1.5-1.3,1.7-2.2l8.1-42.3c0.3-0.9,1.2-1.4,2.2-1.3 L263.7,0.8z M250.5,29.7c-0.1,0.5-0.1,1.2,0.8,1.2h2.8c0.9,0,1.1-0.5,0.9-1.3l-2.2-12.3L250.5,29.7z"></path> <path class="st0" d="M307.9,0.8c15.4,0,17.8,7.6,17.8,20.3c0,9.5-3.5,18.1-13.7,19.9h-9.3c-0.7,0-1.1,0.3-1.3,0.8v2.6 c0.5,1.1,1.3,1.9,2.4,2.3c0.8,0.4,0.8,0.7,1,1.4v7.1c0.1,0.9-0.5,1.7-1.4,1.8c0,0-0.1,0-0.1,0h-21.9c-0.9,0-1.7-0.7-1.7-1.6v-7.4 c0-0.6,0.4-1.2,0.9-1.5c1.1-0.2,1.5-1,1.7-2.2V14.3c-0.1-1.2-0.9-1.8-2.3-2.5c-0.8-0.4-1.4-0.9-1.4-1.7V2.3c0-0.9,0.6-1.5,1.8-1.5 H307.9z M301.3,14.3v13.4c0.1,0.4,0.3,0.6,0.9,0.6h2.2c1.2,0,2.8-1.2,2.9-2.2V15.9c0-1.3-1.4-2.1-2.9-2.1h-2.3 C301.6,13.8,301.3,14,301.3,14.3z"></path> <path class="st0" d="M1.7,67.2c0-0.6,0.4-1,1-1h8.6c0.6,0,1,0.4,1,1v0.9c0,0.4-0.3,0.8-0.8,0.8c-0.5,0-0.9-0.3-1-0.8l-0.1-0.6H8v9.7 l0.9,0.1c0.3,0.1,0.6,0.4,0.6,0.7c0,0.3-0.3,0.6-0.6,0.6H5.1c-0.3,0-0.6-0.3-0.6-0.6l0,0l0,0c0-0.4,0.3-0.7,0.6-0.7l0.9-0.1v-9.7 H3.6l-0.1,0.6c-0.1,0.5-0.5,0.8-1,0.8c-0.4,0-0.8-0.4-0.8-0.8l0,0l0,0L1.7,67.2z"></path> <path class="st0" d="M18.9,78.8c-0.3,0-0.6-0.3-0.6-0.6c0-0.3,0.2-0.6,0.5-0.7l0.6-0.1v-4.3c0-1.8-0.4-2.5-1.9-2.5 c-0.8,0-1.5,0.4-1.9,1.2v5.7l0.6,0.1c0.3,0.1,0.5,0.4,0.5,0.7c0,0.3-0.2,0.6-0.5,0.6h-3.1c-0.3,0-0.6-0.2-0.6-0.6 c0-0.3,0.2-0.6,0.6-0.7l0.7-0.1V66.3l-0.6-0.1c-0.3,0-0.5-0.3-0.5-0.6c0-0.3,0.2-0.6,0.5-0.6l1.6-0.2h0.1c0.4,0,0.8,0.4,0.8,0.8v4.5 c0.7-0.7,1.7-1,2.7-1c2.1,0,3,1.1,3,3.2v5.1l0.6,0.1c0.3,0.1,0.5,0.3,0.5,0.7c0,0.3-0.3,0.6-0.6,0.6H18.9z"></path> <path class="st0" d="M27.7,79c-2.9,0-4.3-1.7-4.3-4.7s1.3-5.2,4.3-5.2c2.8,0,3.6,2.1,3.6,4.1c0,0.5-0.3,0.9-0.8,0.9h-5.1 c0,2,0.7,3.3,2.6,3.3c0.7,0,1.4-0.2,2-0.5c0.1,0,0.2-0.1,0.3-0.1c0.3,0,0.6,0.3,0.5,0.6c0,0,0,0,0,0C30.9,78,29.5,79,27.7,79z M29.3,72.8c0-1.4-0.6-2.4-1.8-2.4c-1.4,0-2,1.1-2.1,2.6L29.3,72.8z"></path> <path class="st0" d="M46.8,77c0,1-2.2,2-3.9,2c-3.2,0-5.8-2.6-5.9-5.8c0-0.1,0-0.2,0-0.3c0-4.2,2.4-7,6.4-7c1.2,0,3.4,0.2,3.4,1.7 v0.8c0,0.4-0.4,0.8-0.8,0.8c-0.5,0-0.9-0.3-1-0.8l-0.3-0.8c-0.3-0.2-0.7-0.2-1-0.2c-2.9,0-4.5,1.9-4.5,5.2s2.2,4.6,3.9,4.6 c0.9,0,1.9-0.3,2.7-0.8c0.1-0.1,0.2-0.1,0.3-0.1C46.5,76.4,46.8,76.7,46.8,77C46.8,77,46.8,77,46.8,77L46.8,77z"></path> <path class="st0" d="M53.9,79c-0.4,0-0.7-0.3-0.7-0.6c0,0,0,0,0,0v-0.5c-0.6,0.7-1.5,1.1-2.5,1.1c-1.5,0.2-2.8-0.9-3-2.4 c0,0,0,0,0,0c0-0.1,0-0.3,0-0.4c0-2.5,1.8-3.1,4.6-3.1h0.8v-0.8c0-1.3-0.4-2-1.6-2c-0.3,0-0.6,0.1-0.9,0.2L50.4,71 c-0.1,0.4-0.5,0.7-1,0.8c-0.4,0-0.8-0.3-0.8-0.7c0,0,0,0,0,0v-0.2c0-1.5,2-1.8,3.4-1.8c2.7,0,3.1,1.4,3.1,3.3v5.1l0.5,0.1 c0.3,0,0.5,0.3,0.5,0.6c0,0.3-0.2,0.6-0.5,0.6L53.9,79z M51.4,77.5c0.6,0,1.2-0.2,1.8-0.5v-2.8L52,74.3c-1.3,0.1-2.2,0.5-2.2,1.7 c0,0.8,0.6,1.5,1.4,1.5C51.2,77.5,51.3,77.5,51.4,77.5z"></path> <path class="st0" d="M58.2,77.4v-6.8l-0.7-0.1c-0.3,0-0.5-0.3-0.5-0.6c0-0.3,0.2-0.6,0.5-0.6l1.8-0.2c0.4,0,0.7,0.3,0.7,0.7 c0,0,0,0,0,0v0.5c0.7-0.8,1.6-1.2,2.6-1.2c0.8,0,1.3,0.3,1.3,1.2v0.7c0,0.4-0.3,0.7-0.7,0.7c-0.4,0-0.9-0.2-1.1-0.6l-0.2-0.3 c-0.7,0-1.4,0.3-1.9,0.9v5.7l0.9,0.1c0.3,0,0.5,0.3,0.6,0.6c0,0.3-0.3,0.6-0.6,0.6h-3.5c-0.3,0-0.6-0.3-0.6-0.6 c0-0.3,0.2-0.6,0.5-0.7L58.2,77.4z"></path> <path class="st0" d="M80.1,77.4c0.3,0.1,0.6,0.4,0.6,0.7c0,0.3-0.3,0.6-0.6,0.6h-3.2c-0.3,0-0.6-0.3-0.6-0.6l0,0l0,0 c0-0.3,0.2-0.6,0.6-0.7l0.5-0.1l-0.9-2.7h-4.2l-0.9,2.8l0.5,0.1c0.3,0.1,0.6,0.4,0.6,0.7c0,0.3-0.3,0.6-0.6,0.6h-2.8 c-0.3,0-0.6-0.3-0.6-0.6c0-0.4,0.2-0.7,0.6-0.7l0.5-0.1L73.1,67c0.2-0.6,0.8-1,1.5-1c0.7,0,1.2,0.4,1.5,1l3.4,10.3L80.1,77.4z M76.1,73.2l-1.6-5.3l-1.6,5.3H76.1z"></path> <path class="st0" d="M83.7,81.6l0.8,0.1c0.3,0.1,0.6,0.3,0.6,0.7c0,0.3-0.3,0.6-0.6,0.6h-3.3c-0.3,0-0.6-0.3-0.6-0.6 c0-0.3,0.2-0.6,0.6-0.7l0.7-0.1v-11l-0.7-0.1c-0.3,0-0.6-0.4-0.5-0.7c0-0.3,0.3-0.5,0.5-0.5l1.8-0.2c0.4,0,0.7,0.3,0.7,0.7v0.4 c0.7-0.7,1.7-1.1,2.7-1.1c2.5,0,3.8,2,3.8,4.6c0,3.3-1.9,5.3-4.5,5.3c-0.7,0-1.3-0.2-1.9-0.5L83.7,81.6z M88.1,74 c0-2.2-0.9-3.4-2.6-3.4c-0.6,0-1.3,0.2-1.8,0.5v6.2c0.4,0.2,0.9,0.4,1.4,0.4C87.1,77.6,88.1,76.3,88.1,74z"></path> <path class="st0" d="M94,81.6l0.8,0.1c0.3,0.1,0.6,0.3,0.6,0.7c0,0.3-0.3,0.6-0.6,0.6h-3.3c-0.3,0-0.6-0.3-0.6-0.6 c0-0.3,0.2-0.6,0.6-0.7l0.6-0.1v-11l-0.7-0.1c-0.3,0-0.6-0.4-0.5-0.7c0-0.3,0.3-0.5,0.5-0.5l1.8-0.2c0.4,0,0.7,0.3,0.7,0.7 c0,0,0,0,0,0l0,0v0.4c0.7-0.7,1.7-1.1,2.7-1.1c2.5,0,3.8,2,3.8,4.6c0,3.3-1.9,5.3-4.5,5.3c-0.7,0-1.3-0.2-1.9-0.5L94,81.6z M98.4,74 c0-2.2-0.9-3.4-2.6-3.4c-0.6,0-1.3,0.2-1.8,0.5v6.2c0.4,0.2,0.9,0.4,1.4,0.4C97.4,77.6,98.4,76.3,98.4,74L98.4,74z"></path> <path class="st0" d="M105.8,79c-2.9,0-4.3-1.7-4.3-4.7s1.3-5.2,4.3-5.2c2.8,0,3.6,2.1,3.6,4.1c0,0.5-0.3,0.9-0.8,0.9c0,0,0,0,0,0 h-5.1c0,2,0.7,3.3,2.6,3.3c0.7,0,1.4-0.2,2-0.5c0.1,0,0.2-0.1,0.3-0.1c0.3,0,0.6,0.3,0.6,0.6c0,0,0,0,0,0l0,0 C109,78,107.6,79,105.8,79z M107.4,72.8c0-1.4-0.6-2.4-1.8-2.4c-1.4,0-2,1.1-2.1,2.6L107.4,72.8z"></path> <path class="st0" d="M116.4,79c-0.4,0-0.7-0.3-0.7-0.6c0,0,0,0,0,0v-0.5c-0.6,0.7-1.5,1.1-2.5,1.1c-1.5,0.2-2.8-0.9-3-2.4 c0,0,0,0,0,0c0-0.1,0-0.3,0-0.4c0-2.5,1.8-3.1,4.6-3.1h0.8v-0.8c0-1.3-0.4-2-1.6-2c-0.3,0-0.6,0.1-0.9,0.2l-0.2,0.5 c-0.1,0.4-0.5,0.7-1,0.8c-0.4,0-0.8-0.3-0.8-0.7c0,0,0,0,0,0v-0.2c0-1.5,2-1.8,3.4-1.8c2.7,0,3.1,1.4,3.1,3.3v5.1l0.6,0.1 c0.3,0,0.5,0.3,0.5,0.6c0,0.3-0.2,0.6-0.5,0.6L116.4,79z M113.9,77.5c0.6,0,1.2-0.2,1.8-0.5v-2.8l-1.2,0.1c-1.3,0.1-2.2,0.5-2.2,1.7 c0,0.8,0.6,1.5,1.4,1.5C113.7,77.5,113.8,77.5,113.9,77.5z"></path> <path class="st0" d="M120.7,77.4v-6.8l-0.7-0.1c-0.3,0-0.5-0.3-0.5-0.6c0-0.3,0.2-0.6,0.5-0.6l1.8-0.2c0.4,0,0.7,0.3,0.7,0.7 c0,0,0,0,0,0v0.5c0.7-0.8,1.6-1.2,2.6-1.2c0.8,0,1.3,0.3,1.3,1.2v0.7c0,0.4-0.3,0.7-0.7,0.7c-0.4,0-0.9-0.2-1.1-0.6l-0.2-0.3 c-0.7,0-1.4,0.3-1.9,0.9v5.7l0.9,0.1c0.3,0,0.6,0.3,0.6,0.6c0,0.3-0.3,0.6-0.6,0.6h-3.4c-0.3,0-0.6-0.3-0.6-0.6 c0-0.3,0.3-0.6,0.6-0.6L120.7,77.4z"></path> <path class="st0" d="M132.9,79c-0.4,0-0.7-0.3-0.7-0.6c0,0,0,0,0,0v-0.5c-0.6,0.7-1.5,1.1-2.5,1.1c-1.5,0.2-2.8-0.9-3-2.4 c0,0,0,0,0,0c0-0.1,0-0.3,0-0.4c0-2.5,1.9-3.1,4.6-3.1h0.8v-0.8c0-1.3-0.4-2-1.6-2c-0.3,0-0.6,0.1-0.9,0.2l-0.2,0.5 c-0.1,0.4-0.5,0.7-1,0.8c-0.4,0-0.8-0.3-0.8-0.7c0,0,0,0,0,0v-0.2c0-1.5,2-1.8,3.4-1.8c2.7,0,3.1,1.4,3.1,3.3v5.1l0.6,0.1 c0.3,0,0.5,0.3,0.5,0.6c0,0.3-0.2,0.6-0.5,0.6L132.9,79z M130.4,77.5c0.6,0,1.2-0.2,1.8-0.5v-2.8l-1.2,0.1c-1.3,0.1-2.2,0.5-2.2,1.7 c0,0.8,0.6,1.5,1.3,1.5c0,0,0,0,0,0C130.2,77.5,130.3,77.5,130.4,77.5L130.4,77.5z"></path> <path class="st0" d="M136.5,70.5c-0.3,0-0.5-0.3-0.5-0.6c0-0.3,0.2-0.6,0.5-0.6l1.8-0.2c0.4,0,0.7,0.3,0.7,0.7c0,0,0,0,0,0v0.4 c0.7-0.7,1.7-1.1,2.7-1.1c2.2,0,3,1.1,3,3.2v5.1l0.6,0.1c0.3,0.1,0.5,0.3,0.5,0.7c0,0.3-0.2,0.6-0.6,0.6h-3c-0.3,0-0.6-0.3-0.6-0.6 c0-0.3,0.2-0.6,0.5-0.7l0.6-0.1v-4.3c0-1.8-0.4-2.5-1.9-2.5c-0.8,0-1.6,0.4-2,1.1v5.7l0.6,0.1c0.3,0.1,0.5,0.3,0.5,0.7 c0,0.3-0.2,0.6-0.6,0.6h-3.1c-0.3,0-0.6-0.2-0.6-0.5v0l0,0c0-0.3,0.2-0.6,0.5-0.7l0.7-0.1v-6.8L136.5,70.5z"></path> <path class="st0" d="M154.1,77.3c0,0.7-1.7,1.7-3.3,1.7c-2.7,0-4.1-1.8-4.1-4.7c0-3.1,1.8-5.2,4.6-5.2c1,0,2.9,0.1,2.9,1.5V71 c0,0.4-0.4,0.8-0.8,0.8c0,0,0,0,0,0l0,0c-0.5,0-0.9-0.3-1-0.8l-0.2-0.6c-0.2-0.1-0.4-0.1-0.7-0.1c-1.8,0-2.8,1.4-2.8,3.6 s1,3.3,2.4,3.3c0.8,0,1.5-0.2,2.2-0.6h0.2C153.9,76.7,154.1,77,154.1,77.3z"></path> <path class="st0" d="M159.3,79c-2.9,0-4.3-1.7-4.3-4.7s1.3-5.2,4.3-5.2c2.8,0,3.6,2.1,3.6,4.1c0,0.5-0.3,0.9-0.8,0.9c0,0,0,0,0,0 h-5.1c0,2,0.7,3.3,2.6,3.3c0.7,0,1.4-0.2,2-0.5c0.1,0,0.2-0.1,0.3-0.1c0.3,0,0.6,0.3,0.6,0.6c0,0,0,0,0,0l0,0 C162.5,78,161.1,79,159.3,79z M160.9,72.8c0-1.4-0.6-2.4-1.8-2.4c-1.4,0-2,1.1-2.1,2.6L160.9,72.8z"></path> <path class="st0" d="M179.7,72.7c0,0.3,0,0.7,0,1c0,1.2-0.5,2.4-1.4,3.3l0.4,0.4l0.6,0.1c0.3,0.1,0.5,0.4,0.5,0.7 c0,0.3-0.2,0.6-0.6,0.6h-1.1c-0.6,0-1.1-0.2-1.5-0.6c-1.1,0.6-2.3,0.9-3.6,0.8c-2.4,0-4.6-1.2-4.6-3.6c0-1.5,1-2.8,2.5-3.3 c-0.9-0.8-1.4-1.8-1.5-3c0-1.8,1.5-3.1,3.2-3.1c0,0,0,0,0,0h0.2c1.9,0,3.3,1,3.3,2.9s-0.9,2.6-2.6,3.2l3.8,4 c0.5-0.7,0.8-1.5,0.8-2.3c0-0.3,0-0.6-0.2-0.9l-0.5-0.1c-0.3-0.1-0.5-0.4-0.5-0.7c0-0.3,0.2-0.5,0.5-0.6h2.5c0.3,0,0.5,0.2,0.5,0.5 c0,0.3-0.2,0.6-0.5,0.7L179.7,72.7z M172,73c-0.8,0.4-1.3,1.1-1.4,2c0,1.7,1.5,2.5,3.2,2.5c0.7,0,1.4-0.2,2-0.5L172,73z M172.8,71.2 c1-0.3,1.7-1.3,1.7-2.3c0.1-0.8-0.5-1.6-1.4-1.7c0,0,0,0,0,0h-0.1c-0.8,0-1.5,0.7-1.4,1.5c0,0,0,0,0,0v0.1 C171.6,69.8,172.1,70.6,172.8,71.2L172.8,71.2z"></path> <path class="st0" d="M189.4,67.6v9.7l0.8,0.1c0.3,0.1,0.6,0.4,0.6,0.7c0,0.3-0.3,0.6-0.6,0.6l0,0h-3.6c-0.3,0-0.6-0.3-0.6-0.6l0,0 l0,0c0-0.4,0.3-0.7,0.6-0.7l0.8-0.1v-9.7l-0.8-0.1c-0.3-0.1-0.6-0.4-0.6-0.7c0-0.3,0.3-0.6,0.6-0.6l0,0h4.5c2.5,0,4.1,0.8,4.1,3.1 c0,1.6-1.1,3-2.7,3.2l0,0c1.1,0.2,1.5,1.1,2.1,2.5c0.8,1.8,1.1,2.4,2.1,2.5c0.3,0,0.6,0.4,0.5,0.7c0,0.3-0.3,0.5-0.5,0.5h-1 c-2,0-2.4-2.1-2.9-3.1c-0.7-1.5-1.2-2.2-2.3-2.5c-0.4-0.1-0.7-0.4-0.7-0.8c0-0.4,0.3-0.7,0.7-0.7c1.6-0.1,2.6-0.7,2.6-2.2 c0-1.3-1-1.8-2.7-1.8L189.4,67.6z"></path> <path class="st0" d="M201.5,79c-2.9,0-4.3-1.7-4.3-4.7s1.3-5.2,4.3-5.2c2.8,0,3.6,2.1,3.6,4.1c0,0.5-0.3,0.9-0.8,0.9h-5.1 c0,2,0.7,3.3,2.6,3.3c0.7,0,1.4-0.2,2-0.5c0.1,0,0.2-0.1,0.3-0.1c0.3,0,0.6,0.3,0.6,0.6c0,0,0,0,0,0l0,0C204.6,78,203.2,79,201.5,79 z M203.1,72.8c0-1.4-0.6-2.4-1.8-2.4c-1.4,0-1.9,1.1-2.1,2.6L203.1,72.8z"></path> <path class="st0" d="M209.6,70.4c-0.9,0-1.6,0.4-1.6,1.2c0,1.5,4.8,1.7,4.8,4.5c0,1.8-1.3,3-3.4,3c-1,0-3.1-0.1-3.1-1.5v-0.4 c0-0.4,0.4-0.8,0.8-0.8c0.5,0,0.9,0.3,1,0.8l0.2,0.6c0.2,0.1,0.5,0.1,0.8,0.1c1,0,1.9-0.4,1.9-1.4c0-1.9-4.7-1.7-4.7-4.6 c0-1.7,1.3-2.7,3.3-2.7c0.9,0,2.9,0.1,2.9,1.5V71c0,0.4-0.4,0.8-0.8,0.8c-0.5,0-0.9-0.3-1-0.8l-0.2-0.6 C210.1,70.4,209.8,70.3,209.6,70.4z"></path> <path class="st0" d="M213.9,70.6c-0.3,0-0.5-0.2-0.5-0.5c0-0.3,0.2-0.6,0.5-0.8l0.9-0.4l0.4-1.3c0.1-0.4,0.5-0.6,0.9-0.6 c0.3,0,0.6,0.3,0.6,0.6v1.8h2.3c0.3,0,0.6,0.4,0.5,0.7c0,0.3-0.3,0.5-0.5,0.5h-2.3v4.9c0,1.2,0.1,2,1.2,2c0.4,0,0.8-0.1,1.1-0.4 c0.1-0.1,0.2-0.1,0.3-0.1c0.3,0,0.4,0.3,0.4,0.6c0,0.7-1.3,1.5-2.6,1.5c-2.2,0-2.4-1.3-2.4-3.2v-5.2H213.9z"></path> <path class="st0" d="M226.8,70.7l-0.4-0.1c-0.3-0.1-0.5-0.4-0.5-0.7c0-0.3,0.3-0.6,0.6-0.6h2.6c0.3,0,0.6,0.2,0.6,0.6 c0,0.4-0.2,0.7-0.6,0.7l-0.5,0.1l-3.9,10.2c-0.4,1.3-1.5,2.3-2.9,2.4c-0.9,0-1.6-0.3-1.6-1.3v-0.5c0-0.4,0.3-0.8,0.8-0.8 c0.4,0,0.8,0.2,1,0.7l0.2,0.6c0.5,0,1.2-1.3,1.6-2.7l0.2-0.4l-3.1-8.1l-0.6-0.1c-0.3-0.1-0.6-0.3-0.6-0.7c0-0.3,0.3-0.6,0.6-0.6h3 c0.3,0,0.6,0.2,0.6,0.6c0,0.3-0.2,0.6-0.6,0.7l-0.5,0.1l2,5.6L226.8,70.7z"></path> <path class="st0" d="M230.9,66.3l-0.6-0.1c-0.3,0-0.5-0.3-0.6-0.6c0-0.3,0.2-0.6,0.6-0.6l1.6-0.2h0.1c0.4,0,0.8,0.4,0.8,0.8v11.8 l0.6,0.1c0.3,0.1,0.5,0.3,0.5,0.7c0,0.3-0.3,0.6-0.6,0.6h-3.2c-0.3,0-0.6-0.3-0.6-0.6c0-0.3,0.2-0.6,0.6-0.7l0.7-0.1V66.3z"></path> <path class="st0" d="M236.1,77.4v-6.8l-0.7-0.1c-0.3,0-0.5-0.3-0.5-0.6c0-0.3,0.2-0.6,0.5-0.6l1.8-0.2c0.4,0,0.8,0.3,0.8,0.8 c0,0,0,0,0,0v7.6l0.6,0.1c0.3,0.1,0.6,0.3,0.6,0.7c0,0.3-0.2,0.6-0.6,0.6h-3.1c-0.3,0-0.6-0.3-0.6-0.6c0-0.3,0.2-0.6,0.6-0.7 L236.1,77.4z M236.9,65.3c0.7,0,1.3,0.6,1.3,1.3s-0.6,1.3-1.3,1.3c-0.7,0-1.3-0.6-1.3-1.3l0,0l0,0c0-0.7,0.5-1.2,1.2-1.3 C236.8,65.3,236.8,65.3,236.9,65.3L236.9,65.3z"></path> <path class="st0" d="M240.6,70.5c-0.3,0-0.5-0.3-0.5-0.6c0-0.3,0.2-0.6,0.5-0.6l1.8-0.2c0.4,0,0.7,0.3,0.7,0.7c0,0,0,0,0,0v0.4 c0.7-0.7,1.7-1.1,2.7-1.1c2.1,0,3,1.1,3,3.2v5.1l0.6,0.1c0.3,0.1,0.5,0.3,0.5,0.7c0,0.3-0.3,0.6-0.6,0.6h-3c-0.3,0-0.6-0.2-0.6-0.5 v0l0,0c0-0.3,0.2-0.6,0.5-0.7l0.6-0.1v-4.3c0-1.8-0.4-2.5-1.8-2.5c-0.8,0-1.5,0.4-1.9,1.1v5.7l0.6,0.1c0.3,0.1,0.6,0.3,0.6,0.7 c0,0.3-0.3,0.6-0.6,0.6h-3.1c-0.3,0-0.6-0.3-0.6-0.6c0-0.3,0.2-0.6,0.5-0.7l0.7-0.1v-6.8L240.6,70.5z"></path> <path class="st0" d="M254.3,83.2c-2.2,0-4.2-0.9-4.2-2.7c0-0.9,0.7-1.7,1.7-1.9c0.3,0,0.7,0.1,0.7,0.4c0,0.1,0,0.1-0.1,0.2 c-0.2,0.3-0.3,0.7-0.3,1.1c0,1.1,1,1.6,2.5,1.6c1.7,0,3-0.8,3-2.1c0-1.1-1.1-1.1-2.2-1.1c-1.5,0-4.2,0-4.2-1.5 c0-0.7,0.5-1.3,1.4-1.8c-1.1-0.5-1.9-1.6-1.8-2.9c0-1.9,1.6-3.5,3.5-3.5h0h0.3c0.8,0,1.5,0.2,2.2,0.6c0.7-0.3,1.4-0.5,2.2-0.4 c0.6,0,0.9,0.3,0.9,0.8c0,0.4-0.3,0.8-0.8,0.8l0,0h-1.4c0.4,0.5,0.6,1.2,0.6,1.8c0,2-1.6,3.3-4,3.3h-0.4c-0.5,0.2-0.6,0.5-0.6,0.8 c0,0.6,0.8,0.6,2.7,0.6s3.6,0.2,3.6,2.3S257.2,83.2,254.3,83.2z M252.8,72.3c0,1.4,0.6,2.4,1.7,2.4c1,0,1.8-0.8,1.8-1.7c0,0,0,0,0,0 c0-0.1,0-0.2,0-0.2c0-1.4-0.6-2.4-1.8-2.4S252.8,71,252.8,72.3z"></path> <path class="st0" d="M272.7,77.4l0.2-0.7c0.1-0.4,0.5-0.7,0.9-0.7c0.4,0,0.7,0.3,0.7,0.7v1.1c0,0.6-0.4,1-1,1h-7.7 c-0.3,0-0.6-0.3-0.6-0.6c0-0.3,0.3-0.6,0.6-0.7l0.8-0.1v-9.7l-0.8-0.1c-0.3-0.1-0.6-0.4-0.6-0.7c0-0.3,0.3-0.6,0.6-0.6h7.5 c0.6,0,1,0.4,1,1v1c0,0.4-0.3,0.7-0.7,0.7c-0.4,0-0.8-0.3-0.9-0.7l-0.2-0.6h-4v4h3.5c0.4,0,0.7,0.3,0.7,0.7c0,0.4-0.3,0.7-0.7,0.7 l0,0h-3.5v4.3L272.7,77.4z"></path> <path class="st0" d="M281.7,70.6l-0.2-0.1c-0.3-0.1-0.5-0.4-0.5-0.7c0-0.3,0.2-0.5,0.5-0.5c0,0,0,0,0,0h2.4c0.3,0,0.6,0.2,0.6,0.6 c0,0.3-0.2,0.7-0.6,0.7l-0.5,0.1l-2.5,3.1l2.7,3.6l0.5,0.1c0.3,0.1,0.5,0.3,0.5,0.7c0,0.3-0.3,0.6-0.6,0.6h-3 c-0.3,0-0.5-0.2-0.5-0.6l0,0c0-0.3,0.2-0.6,0.5-0.7l0.3-0.1l-1.7-2.5l-1.8,2.5l0.3,0.1c0.3,0.1,0.5,0.3,0.5,0.7 c0,0.3-0.2,0.6-0.5,0.6c0,0,0,0,0,0h-2.6c-0.3,0-0.6-0.3-0.5-0.6c0-0.3,0.2-0.6,0.5-0.7l0.6-0.1l2.7-3.4l-2.5-3.3l-0.5-0.1 c-0.3-0.1-0.5-0.4-0.5-0.7c0-0.3,0.2-0.5,0.5-0.6h2.9c0.3,0,0.5,0.2,0.5,0.5l0,0c0,0.3-0.2,0.6-0.5,0.7l-0.2,0.1l1.6,2.2L281.7,70.6 z"></path> <path class="st0" d="M288.4,81.6l0.8,0.1c0.3,0.1,0.6,0.3,0.6,0.7c0,0.3-0.3,0.6-0.6,0.6h-3.3c-0.3,0-0.6-0.3-0.6-0.6 c0-0.3,0.2-0.6,0.6-0.7l0.7-0.1v-11l-0.7-0.1c-0.3,0-0.5-0.3-0.5-0.6c0-0.3,0.2-0.6,0.5-0.6l1.8-0.2c0.4,0,0.7,0.3,0.7,0.7 c0,0,0,0,0,0v0.4c0.7-0.7,1.7-1.1,2.7-1.1c2.5,0,3.8,2,3.8,4.6c0,3.3-1.9,5.3-4.5,5.3c-0.7,0-1.3-0.2-1.9-0.5V81.6z M292.8,74 c0-2.2-0.9-3.4-2.6-3.4c-0.6,0-1.3,0.2-1.8,0.5v6.2c0.4,0.2,0.9,0.4,1.4,0.4C291.8,77.6,292.8,76.3,292.8,74L292.8,74z"></path> <path class="st0" d="M300.2,79c-2.9,0-4.3-1.7-4.3-4.7s1.3-5.2,4.3-5.2c2.8,0,3.6,2.1,3.6,4.1c0,0.5-0.3,0.9-0.8,0.9h-5.1 c0,2,0.7,3.3,2.6,3.3c0.7,0,1.4-0.2,2-0.5c0.1,0,0.2-0.1,0.3-0.1c0.3,0,0.6,0.3,0.6,0.6c0,0,0,0,0,0l0,0C303.4,78,302,79,300.2,79z M301.8,72.8c0-1.4-0.6-2.4-1.8-2.4c-1.4,0-2,1.1-2.1,2.6L301.8,72.8z"></path> <path class="st0" d="M306.1,77.4v-6.8l-0.7-0.1c-0.3,0-0.5-0.3-0.5-0.6c0-0.3,0.2-0.6,0.5-0.6l1.8-0.2c0.4,0,0.7,0.3,0.7,0.7 c0,0,0,0,0,0v0.6c0.6-0.8,1.6-1.2,2.6-1.2c0.8,0,1.3,0.3,1.3,1.2v0.7c0,0.4-0.3,0.7-0.7,0.7c-0.4,0-0.9-0.2-1.1-0.6l-0.2-0.3 c-0.7,0-1.4,0.3-1.9,0.9v5.7l0.9,0.1c0.3,0,0.5,0.3,0.5,0.6c0,0.3-0.3,0.6-0.6,0.6h-3.5c-0.3,0-0.6-0.3-0.6-0.6 c0-0.3,0.2-0.6,0.5-0.7L306.1,77.4z"></path> <path class="st0" d="M312.5,70.6c-0.3,0-0.5-0.2-0.5-0.5v0l0,0c0-0.3,0.2-0.6,0.5-0.8l0.9-0.4l0.5-1.3c0.1-0.4,0.5-0.6,0.9-0.6 c0.3,0,0.6,0.3,0.6,0.6v1.8h2.3c0.3,0,0.6,0.4,0.5,0.7c0,0.3-0.3,0.5-0.5,0.5h-2.3v4.9c0,1.2,0.1,2,1.2,2c0.4,0,0.8-0.1,1.1-0.4 c0.1-0.1,0.2-0.1,0.3-0.1c0.3,0,0.4,0.3,0.4,0.6c0,0.7-1.3,1.5-2.6,1.5c-2.2,0-2.4-1.3-2.4-3.2v-5.2H312.5z"></path> <path class="st0" d="M322.5,70.4c-0.9,0-1.6,0.4-1.6,1.2c0,1.5,4.7,1.7,4.7,4.5c0,1.8-1.3,3-3.5,3c-1,0-3.1-0.1-3.1-1.5v-0.4 c0-0.4,0.4-0.8,0.8-0.8c0.5,0,0.9,0.3,1,0.8l0.2,0.6c0.2,0.1,0.5,0.1,0.8,0.1c1,0,1.9-0.4,1.9-1.4c0-1.9-4.7-1.7-4.7-4.6 c0-1.7,1.3-2.7,3.3-2.7c0.9,0,2.9,0.1,2.9,1.5V71c0,0.4-0.4,0.8-0.8,0.8l0,0l0,0c-0.5,0-0.9-0.3-1-0.8l-0.2-0.6 C323,70.4,322.8,70.3,322.5,70.4z"></path> </svg> 