<svg version="1.1" xmlns="http://www.w3.org/2000/svg" xmlns:xlink="http://www.w3.org/1999/xlink"
	 viewBox="0 0 628.7 1201.1" xml:space="preserve">
<g transform="translate(0.000000,1280.000000) scale(0.100000,-0.100000)">
	<path fill="#fff" d="M2883.1,12686.5c-218-20-477-73-682-139c-1029-332-1810-1183-2037-2223c-112-509-87-1043,69-1536
		c28-86,2866-7875,2903-7966l13-34l11,30c6,17,655,1796,1443,3955s1443,3959,1457,4000c233,731,178,1512-153,2200
		c-158,327-328,566-588,825c-475,474-1049,761-1731,867c-101,15-190,21-395,23C3047.1,12689.5,2908.1,12689.5,2883.1,12686.5z
		 M3364.1,11287.5c395-68,747-330,928-692c145-290,170-658,66-968c-81-242-247-471-450-622c-145-107-364-201-545-233
		c-41-7-138-13-215-13c-158,0-247,13-385,56c-390,123-702,433-829,827c-46,140-56,212-56,391c1,182,15,271,67,420
		c152,431,534,755,983,834C3039.1,11307.5,3249.1,11307.5,3364.1,11287.5z"/>
</g>
</svg>
